<svg width="50" height="50" xmlns="http://www.w3.org/2000/svg">
  <path d="M43.26 44.16H6.74C3.01826733 44.148993.00548927 41.1317449 0 37.41V12.75C.00548927 9.0282551 3.01826733 6.01100704 6.74 6h36.52c3.7217327.01100704 6.7345107 3.0282551 6.74 6.75v24.66c-.0054893 3.7217449-3.0182673 6.738993-6.74 6.75zM6.74 9.31c-1.8975799.00549231-3.43450769 1.5424201-3.44 3.44v24.66c.00549231 1.8975799 1.5424201 3.4345077 3.44 3.44h36.52c1.8975799-.0054923 3.4345077-1.5424201 3.44-3.44V12.75c-.0054923-1.8975799-1.5424201-3.43450769-3.44-3.44H6.74zM26 29.42l13.32-10.13c.4698043-.3572656.7133224-.9380302.6388234-1.5235254-.0744989-.5854952-.4556968-1.0867704-1-1.315-.5443032-.2282296-1.1690192-.1487402-1.6388234.2085254L25 26.08l-12.3-9.34c-.7262544-.5522847-1.7627153-.4112544-2.315.315-.55228475.7262544-.41125445 1.7627153.315 2.315L24 29.42c.5883283.4570583 1.4116717.4570583 2 0z" fill="#FCD800" fill-rule="nonzero"/>
</svg>
