<?xml version="1.0" encoding="UTF-8"?>
<svg width="50px" height="50px" viewBox="0 0 50 50" version="1.1" xmlns="http://www.w3.org/2000/svg" xmlns:xlink="http://www.w3.org/1999/xlink">
    <!-- Generator: Sketch 63.1 (92452) - https://sketch.com -->
    <title>Artboard</title>
    <desc>Created with Sketch.</desc>
    <g id="Artboard" stroke="none" stroke-width="1" fill="none" fill-rule="evenodd">
        <path d="M39.2236673,-1.77635684e-14 C42.6287164,-1.77635684e-14 45.3890541,2.76033771 45.3890541,6.16538683 L45.3890541,6.16538683 L45.3890541,43.8346132 C45.3890541,47.2396623 42.6287164,50 39.2236673,50 L39.2236673,50 L11.1653868,50 C7.76033771,50 5,47.2396623 5,43.8346132 L5,43.8346132 L5,6.16538683 C5,2.76033771 7.76033771,-1.77635684e-14 11.1653868,-1.77635684e-14 L11.1653868,-1.77635684e-14 Z M39.2236673,3.32904257 L11.1653868,3.32904257 C9.59891715,3.32904257 8.32904257,4.59891715 8.32904257,6.16538683 L8.32904257,6.16538683 L8.32904257,43.8346132 C8.32904257,45.4010828 9.59891715,46.6709574 11.1653868,46.6709574 L11.1653868,46.6709574 L39.2236673,46.6709574 C40.790137,46.6709574 42.0600115,45.4010828 42.0600115,43.8346132 L42.0600115,43.8346132 L42.0600115,6.16538683 C42.0600115,4.59891715 40.790137,3.32904257 39.2236673,3.32904257 L39.2236673,3.32904257 Z M28.383195,38.553642 C29.3024847,38.553642 30.0477163,39.2988735 30.0477163,40.2181633 C30.0477163,41.0833771 29.3875804,41.794408 28.5434995,41.8750648 L28.383195,41.8826845 L21.4266057,41.8826845 C20.507316,41.8826845 19.7620844,41.137453 19.7620844,40.2181633 C19.7620844,39.3529494 20.4222203,38.6419186 21.2663012,38.5612617 L21.4266057,38.553642 L28.383195,38.553642 Z" id="Combined-Shape" fill="#FFD800" fill-rule="nonzero"></path>
    </g>
</svg>