<?xml version="1.0" encoding="UTF-8"?>
<svg width="50px" height="50px" viewBox="0 0 50 50" version="1.1" xmlns="http://www.w3.org/2000/svg" xmlns:xlink="http://www.w3.org/1999/xlink">
    <!-- Generator: Sketch 63.1 (92452) - https://sketch.com -->
    <title>Artboard</title>
    <desc>Created with Sketch.</desc>
    <g id="Artboard" stroke="none" stroke-width="1" fill="none" fill-rule="evenodd">
        <path d="M24.712154,3.19744231e-14 C27.3716208,3.19744231e-14 29.9533861,0.521700565 32.3856899,1.5506719 C34.7331833,2.54374561 36.8407107,3.9646555 38.6497395,5.77396724 C40.4586622,7.58317288 41.8792891,9.69091249 42.8721506,12.0385827 C43.9008037,14.4709572 44.4223981,17.0526871 44.4223981,19.7120833 C44.4223981,23.6444839 42.2500428,28.9056631 37.7811935,35.7962061 C34.4229074,40.974414 30.6020193,45.7631237 28.6233344,48.1567004 C27.6547701,49.3282013 26.2290149,50 24.7114466,50 C23.1919332,50 21.765506,49.326822 20.7978966,48.153093 C18.823668,45.7659531 15.0037348,40.9801788 11.641523,35.7963122 C7.17246145,28.9059107 5,23.6447315 5,19.7120833 C5,17.0526164 5.52170056,14.4708157 6.55063654,12.0383705 C7.54367487,9.69070028 8.9645494,7.58299605 10.7737904,5.77375504 C12.582996,3.9645494 14.6907357,2.54367487 17.0384059,1.55063654 C19.4708511,0.521700565 22.0526871,3.19744231e-14 24.712154,3.19744231e-14 Z M24.712154,3.47673055 C15.7461616,3.47673055 8.47673055,10.7461616 8.47673055,19.7120833 C8.47673055,27.164999 19.6933457,41.3622853 23.4805997,45.9415509 C24.1199314,46.7171167 25.3023961,46.7171874 25.9436375,45.9415509 C29.7291231,41.3622853 40.9456676,27.164999 40.9456676,19.7120833 C40.9456676,10.7461616 33.6780756,3.47673055 24.712154,3.47673055 Z M24.6956837,10.6503755 L25.0157835,10.6518612 C28.6359592,10.7306651 31.8909352,12.9206397 33.3189396,16.2702582 C34.7902169,19.7213802 34.0304878,23.7194229 31.3958719,26.3903215 C28.7612559,29.06122 24.7739778,29.8755582 21.3030563,28.4516185 C17.832141,27.0276813 15.5656171,23.6477181 15.5658283,19.9078193 C15.5317738,14.8300974 19.6197606,10.6858129 24.6956837,10.6503755 L24.6956837,10.6503755 Z M24.73347,14.1269421 L24.7217079,14.1270638 C21.5637353,14.1490771 19.0213012,16.7265244 19.0425198,19.8962587 C19.0423879,22.2373494 20.4567541,24.3464925 22.6226492,25.2350473 C24.7885495,26.1236043 27.276663,25.6154467 28.9206977,23.9487711 C30.5647323,22.2820956 31.0388132,19.7872649 30.120717,17.6337197 C29.2026208,15.4801746 27.0743294,14.0947834 24.73347,14.1269421 L24.73347,14.1269421 Z" id="Combined-Shape" fill="#FFD800" fill-rule="nonzero"></path>
    </g>
</svg>